<?xml version="1.0" encoding="utf-8"?>
<!-- Generator: Adobe Illustrator 15.1.0, SVG Export Plug-In . SVG Version: 6.00 Build 0)  -->
<!DOCTYPE svg PUBLIC "-//W3C//DTD SVG 1.1//EN" "http://www.w3.org/Graphics/SVG/1.1/DTD/svg11.dtd">
<svg version="1.1" id="Layer_1" xmlns="http://www.w3.org/2000/svg" xmlns:xlink="http://www.w3.org/1999/xlink" x="0px" y="0px"
	 width="24px" height="24px" viewBox="0 0 24 24" enable-background="new 0 0 24 24" xml:space="preserve">
<path fill="#000000" d="M14.482,0h-1H3H2.1v24H3h18h0.9V7.889L14.482,0z M2.9,23.203V0.701h1.251h8.902L14.452,1L21.1,8.189v15.014"/>
<rect id="line5_12_" x="6" y="20" fill="#000000" width="12" height="1"/>
<rect id="line5_11_" x="6" y="17" fill="#000000" width="12" height="1"/>
<rect id="line5_10_" x="6" y="14" fill="#000000" width="12" height="1"/>
<path fill="#000000" d="M14.373,0c0,0-1.321,0-1.473,0c2.085,4.183,0,8.6,0,8.6s5.188-1.331,8.991,0.56c0-0.121,0-1.27,0-1.27
	L14.373,0z M17.296,7.415c-1.118,0-2.146,0.118-2.952,0.251c0.373-1.604,0.676-4.521-0.185-6.865l6.527,7.161
	C19.743,7.731,18.411,7.415,17.296,7.415z"/>
<polygon fill="#000000" points="18.161,7.865 18.161,11.11 5.824,11.11 5.824,4.757 14.444,4.757 14.503,4.041 6,4 5,4 5,12 6,12 
	18,12 19,12 19,7.87 "/>
</svg>
