<?xml version="1.0" encoding="utf-8"?>
<!-- Generator: Adobe Illustrator 15.1.0, SVG Export Plug-In . SVG Version: 6.00 Build 0)  -->
<!DOCTYPE svg PUBLIC "-//W3C//DTD SVG 1.1//EN" "http://www.w3.org/Graphics/SVG/1.1/DTD/svg11.dtd">
<svg version="1.1" id="Layer_1" xmlns="http://www.w3.org/2000/svg" xmlns:xlink="http://www.w3.org/1999/xlink" x="0px" y="0px"
	 width="24px" height="24px" viewBox="0 0 24 24" enable-background="new 0 0 24 24" xml:space="preserve">
<path fill="none" stroke="#000000" stroke-miterlimit="10" d="M12.205,0.542C5.856,0.542,0.5,5.624,0.5,12.016
	c0,6.392,5.255,11.486,11.604,11.486c6.35,0,11.397-5.095,11.397-11.486C23.502,5.624,18.555,0.542,12.205,0.542z M17.445,10.65
	c0,0-0.041,4.07,0,5.782c0.047,1.887-1.571,2.24-1.571,2.24s-4.573,0.095-6.841,0c-2.143-0.091-2.22-2.427-2.22-2.427L6.829,4.259
	c2.773,0.56,2.773,2.986,2.773,2.986l0.087,8.908h5.076v-5.13c0,0-0.008-0.061-1.571,0c-2.498,0.097-2.868-2.706-2.868-2.706
	s1.94,0,4.624,0C17.63,8.317,17.445,10.65,17.445,10.65z"/>
</svg>
