<?xml version="1.0" encoding="utf-8"?>
<!-- Generator: Adobe Illustrator 15.1.0, SVG Export Plug-In . SVG Version: 6.00 Build 0)  -->
<!DOCTYPE svg PUBLIC "-//W3C//DTD SVG 1.1//EN" "http://www.w3.org/Graphics/SVG/1.1/DTD/svg11.dtd">
<svg version="1.1" id="Layer_1" xmlns="http://www.w3.org/2000/svg" xmlns:xlink="http://www.w3.org/1999/xlink" x="0px" y="0px"
	 width="24px" height="24px" viewBox="0 0 24 24" enable-background="new 0 0 24 24" xml:space="preserve">
<g>
	<path fill="none" d="M14.95,8.317c-2.683,0-4.624,0-4.624,0s0.37,2.802,2.868,2.706c1.563-0.061,1.571,0,1.571,0v5.13H9.689
		L9.603,7.246c0,0,0-2.427-2.773-2.986L6.813,16.246c0,0,0.077,2.336,2.22,2.427c2.268,0.095,6.841,0,6.841,0
		s1.618-0.354,1.571-2.24c-0.041-1.712,0-5.782,0-5.782S17.63,8.317,14.95,8.317z"/>
	<path fill="none" stroke="#000000" stroke-miterlimit="10" d="M12.205,0.542C5.856,0.542,0.5,5.624,0.5,12.016
		c0,6.392,5.255,11.486,11.604,11.486c6.35,0,11.397-5.095,11.397-11.486C23.502,5.624,18.555,0.542,12.205,0.542z M13.861,11.46
		c0,0-0.038,3.612,0,5.131c0.04,1.67-1.399,1.983-1.399,1.983s-4.057,0.086-6.067,0c-1.899-0.079-1.967-2.149-1.967-2.149
		L4.442,5.795C6.9,6.292,6.9,8.441,6.9,8.441l0.077,7.9h4.499v-4.549c0,0-0.006-0.053-1.393,0c-2.213,0.086-2.541-2.401-2.541-2.401
		s1.72,0,4.098,0C14.023,9.392,13.861,11.46,13.861,11.46z M16.141,8.321v7.824l4.925-3.833L16.141,8.321z"/>
</g>
</svg>
