<?xml version="1.0" encoding="utf-8"?>
<!-- Generator: Adobe Illustrator 15.1.0, SVG Export Plug-In . SVG Version: 6.00 Build 0)  -->
<!DOCTYPE svg PUBLIC "-//W3C//DTD SVG 1.1//EN" "http://www.w3.org/Graphics/SVG/1.1/DTD/svg11.dtd">
<svg version="1.1" id="Layer_1" xmlns="http://www.w3.org/2000/svg" xmlns:xlink="http://www.w3.org/1999/xlink" x="0px" y="0px"
	 width="24px" height="24px" viewBox="0 0 24 24" enable-background="new 0 0 24 24" xml:space="preserve">
<path fill="none" stroke="#000000" stroke-width="0.95" stroke-linecap="round" stroke-linejoin="round" stroke-miterlimit="10" d="
	M16.431,8.633h4.886v12.529H0.487c0-2.77,0-5.54,0-8.31c0-1.02,0-2.04,0-3.06c0-0.395-0.072-0.796,0.309-0.834
	C1.37,8.9,1.993,8.858,2.453,8.858c0.604,0,1.208,0,1.812,0"/>
<line fill="none" stroke="#000000" stroke-width="0.95" stroke-linecap="round" stroke-linejoin="round" stroke-miterlimit="10" x1="5.054" y1="21.093" x2="5.054" y2="9.833"/>
<line fill="none" stroke="#000000" stroke-width="0.95" stroke-linecap="round" stroke-linejoin="round" stroke-miterlimit="10" x1="7.816" y1="18.592" x2="18.64" y2="18.592"/>
<line fill="none" stroke="#000000" stroke-width="0.95" stroke-linecap="round" stroke-linejoin="round" stroke-miterlimit="10" x1="7.816" y1="15.967" x2="18.64" y2="15.967"/>
<path fill="none" stroke="#000000" stroke-width="0.95" stroke-linecap="round" stroke-linejoin="round" stroke-miterlimit="10" d="
	M10.951,14.113l2.279-2.271l7.67-8.188c0.429-0.428,0.429-1.121,0.004-1.545l-1.315-1.315c-0.426-0.426-1.117-0.425-1.546,0.003
	l-7.682,8.187L7.207,5.813C6.78,5.386,6.088,5.388,5.66,5.816L4.338,7.138C3.91,7.566,3.91,8.259,4.336,8.685l3.153,3.173
	l2.188,2.188c0,0,0.25,0.264,0.533,0.303C10.627,14.408,10.951,14.113,10.951,14.113z"/>
<polyline fill="none" stroke="#000000" stroke-width="0.95" stroke-linecap="round" stroke-linejoin="round" stroke-miterlimit="10" points="
	23.602,11.07 23.602,23.602 2.102,23.602 2.102,21.334 "/>
<path fill="none" stroke="#000000" stroke-width="0.95" stroke-linecap="round" stroke-linejoin="round" stroke-miterlimit="10" d="
	M21.692,11.008c0.625,0,1.25,0,1.875,0"/>
</svg>
