<?xml version="1.0" encoding="utf-8"?>
<!-- Generator: Adobe Illustrator 15.1.0, SVG Export Plug-In . SVG Version: 6.00 Build 0)  -->
<!DOCTYPE svg PUBLIC "-//W3C//DTD SVG 1.1//EN" "http://www.w3.org/Graphics/SVG/1.1/DTD/svg11.dtd">
<svg version="1.1" id="Layer_1" xmlns="http://www.w3.org/2000/svg" xmlns:xlink="http://www.w3.org/1999/xlink" x="0px" y="0px"
	 width="24px" height="24px" viewBox="0 0 24 24" enable-background="new 0 0 24 24" xml:space="preserve">
<path fill-rule="evenodd" clip-rule="evenodd" fill="none" stroke="#000000" stroke-width="0.95" stroke-linecap="round" stroke-linejoin="round" stroke-miterlimit="10" d="
	M16.655,21.868c0,0.957-0.623,1.733-1.387,1.733H1.893c-0.768,0-1.392-0.776-1.392-1.733V11.346c0-0.96,0.625-1.735,1.392-1.735
	h13.376c0.764,0,1.387,0.775,1.387,1.735V21.868z"/>
<path fill-rule="evenodd" clip-rule="evenodd" fill="none" stroke="#000000" stroke-width="0.95" stroke-linecap="round" stroke-linejoin="round" stroke-miterlimit="10" d="
	M7.432,9.511V2.418c0-1.002,0.7-1.917,1.468-1.917h13.31c0.769,0,1.392,0.915,1.392,1.917v11.028c0,1.005-0.623,1.819-1.392,1.819
	h-5.373"/>
<line fill="none" stroke="#000000" stroke-width="0.95" stroke-linecap="round" stroke-linejoin="round" stroke-miterlimit="10" x1="7.507" y1="3.927" x2="23.602" y2="3.926"/>
<line fill="none" stroke="#000000" stroke-width="0.95" stroke-linecap="round" stroke-linejoin="round" stroke-miterlimit="10" x1="0.5" y1="13.207" x2="16.589" y2="13.207"/>
</svg>
