<?xml version="1.0" encoding="utf-8"?>
<!-- Generator: Adobe Illustrator 15.1.0, SVG Export Plug-In . SVG Version: 6.00 Build 0)  -->
<!DOCTYPE svg PUBLIC "-//W3C//DTD SVG 1.1//EN" "http://www.w3.org/Graphics/SVG/1.1/DTD/svg11.dtd">
<svg version="1.1" id="Layer_1" xmlns="http://www.w3.org/2000/svg" xmlns:xlink="http://www.w3.org/1999/xlink" x="0px" y="0px"
	 width="24px" height="24px" viewBox="0 0 24 24" enable-background="new 0 0 24 24" xml:space="preserve">
<path fill="#000000" d="M9.25,0"/>
<path fill="#000000" d="M9.25,0"/>
<path fill="#000000" d="M23.975,9.868c-0.007-0.042,0-0.084-0.014-0.126l-2.792-8.724C20.953,0,20.219,0,20.371,0H3.621
	C3.254,0,2.75,0,2.516,1.125L0,9.484c-0.014,0.043,0.023,0.344,0.017,0.387C0.009,9.915,0,10.344,0,10.281v12.359
	C0,23.104,0.366,24,0.829,24h22.334C24,24,24,23.555,24,22.561V9.998C24,9.953,23.983,9.913,23.975,9.868z M20.119,0.701
	c0.283,0.917,2.011,6.571,2.683,8.739h-7.234l-0.806-8.739H20.119z M9.542,0.701h4.484l0.65,8.716L8.909,9.4L9.542,0.701z
	 M3.631,0.71h5.104L8.002,9.439H1.088C1.696,7.543,3.375,1.512,3.631,0.71z M23.104,23.104H1.001V10.457h22.103V23.104z"/>
<polygon fill="none" stroke="#000000" stroke-miterlimit="10" points="8.375,12.125 8.458,16.208 10.292,15.042 11.958,16.708 
	12.708,15.292 15.208,15.958 15.208,12.167 "/>
</svg>
