<?xml version="1.0" encoding="utf-8"?>
<!-- Generator: Adobe Illustrator 15.1.0, SVG Export Plug-In . SVG Version: 6.00 Build 0)  -->
<!DOCTYPE svg PUBLIC "-//W3C//DTD SVG 1.1//EN" "http://www.w3.org/Graphics/SVG/1.1/DTD/svg11.dtd">
<svg version="1.1" id="Layer_1" xmlns="http://www.w3.org/2000/svg" xmlns:xlink="http://www.w3.org/1999/xlink" x="0px" y="0px"
	 width="24px" height="24px" viewBox="0 0 24 24" enable-background="new 0 0 24 24" xml:space="preserve">
<path fill="none" stroke="#000000" stroke-miterlimit="10" d="M20.001,16.147c0.002-0.036,0.002-0.074,0-0.11V4.532V2.108V0.8
	L8.131,5.71v0.94H8.128v10.957c-0.984-0.421-2.52-0.423-3.73,0.263c-1.804,1.021-2.439,3.057-1.667,4.421
	c0.774,1.365,2.863,1.644,4.668,0.623c1.541-0.873,2.509-1.935,2.702-3.996V8.574l8.131-3.475v8.911
	c-0.988-0.446-2.567-0.177-3.382,0.342c-1.75,1.114-2.442,2.957-1.668,4.322c0.772,1.364,2.863,1.643,4.666,0.622
	c1.319-0.746,2.119-1.981,2.152-3.125l0,0V16.147z"/>
</svg>
