<?xml version="1.0" encoding="utf-8"?>
<!-- Generator: Adobe Illustrator 15.1.0, SVG Export Plug-In . SVG Version: 6.00 Build 0)  -->
<!DOCTYPE svg PUBLIC "-//W3C//DTD SVG 1.1//EN" "http://www.w3.org/Graphics/SVG/1.1/DTD/svg11.dtd">
<svg version="1.1" id="Layer_1" xmlns="http://www.w3.org/2000/svg" xmlns:xlink="http://www.w3.org/1999/xlink" x="0px" y="0px"
	 width="24px" height="24px" viewBox="0 0 24 24" enable-background="new 0 0 24 24" xml:space="preserve">
<path fill="#000000" d="M14.087,12.003c0,1.122-0.911,2.031-2.033,2.031c-1.124,0-2.04-0.909-2.04-2.031
	c0-1.123,0.916-2.034,2.04-2.034C13.176,9.969,14.087,10.88,14.087,12.003z"/>
<path fill="none" stroke="#000000" stroke-width="0.9567" stroke-linecap="round" stroke-linejoin="round" stroke-miterlimit="10" d="
	M18.984,12.004c0,3.824-3.104,6.924-6.932,6.924c-3.832,0-6.936-3.1-6.936-6.924c0-3.828,3.104-6.928,6.936-6.928
	C15.881,5.076,18.984,8.176,18.984,12.004z"/>
<path fill="none" stroke="#000000" stroke-width="0.9567" stroke-linecap="round" stroke-linejoin="round" stroke-miterlimit="10" d="
	M23.551,12.005c0,6.344-5.151,11.488-11.5,11.488c-6.354,0-11.501-5.144-11.501-11.488C0.55,5.654,5.698,0.51,12.051,0.51
	C18.399,0.51,23.551,5.654,23.551,12.005z"/>
</svg>
