<?xml version="1.0" encoding="utf-8"?>
<!-- Generator: Adobe Illustrator 15.1.0, SVG Export Plug-In . SVG Version: 6.00 Build 0)  -->
<!DOCTYPE svg PUBLIC "-//W3C//DTD SVG 1.1//EN" "http://www.w3.org/Graphics/SVG/1.1/DTD/svg11.dtd">
<svg version="1.1" id="Layer_1" xmlns="http://www.w3.org/2000/svg" xmlns:xlink="http://www.w3.org/1999/xlink" x="0px" y="0px"
	 width="24px" height="24px" viewBox="0 0 24 24" enable-background="new 0 0 24 24" xml:space="preserve">
<path fill="none" stroke="#000000" stroke-width="0.9567" stroke-linecap="round" stroke-linejoin="round" stroke-miterlimit="10" d="
	M17.976,10.794c1.85-2.341,1.132-6.078-1.078-8.271C14.144-0.21,9.669-0.168,6.907,2.616c-2.27,2.285-2.684,5.705-1.241,8.37
	c0,0,3,3.737,3.217,5.825c0.017,0.157,6.108,0.082,6.108,0.082S14.807,14.796,17.976,10.794z"/>
<path fill="none" stroke="#000000" stroke-width="0.9567" stroke-linecap="round" stroke-linejoin="round" stroke-miterlimit="10" d="
	M8.862,18.28c0,1.225,0.014,1.547,0.014,3.58c0,2.24,6.042,2.24,6.03-0.326c-0.005-1.045,0-2.088,0-3.134"/>
<line fill="none" stroke="#000000" stroke-width="0.9567" stroke-linecap="round" stroke-linejoin="round" stroke-miterlimit="10" x1="8.92" y1="7.685" x2="14.871" y2="7.685"/>
<line fill="none" stroke="#000000" stroke-width="0.9567" stroke-linecap="round" stroke-linejoin="round" stroke-miterlimit="10" x1="11.84" y1="7.685" x2="11.84" y2="16.694"/>
</svg>
