<?xml version="1.0" encoding="utf-8"?>
<!-- Generator: Adobe Illustrator 15.1.0, SVG Export Plug-In . SVG Version: 6.00 Build 0)  -->
<!DOCTYPE svg PUBLIC "-//W3C//DTD SVG 1.1//EN" "http://www.w3.org/Graphics/SVG/1.1/DTD/svg11.dtd">
<svg version="1.1" id="Layer_1" xmlns="http://www.w3.org/2000/svg" xmlns:xlink="http://www.w3.org/1999/xlink" x="0px" y="0px"
	 width="24px" height="24px" viewBox="0 0 24 24" enable-background="new 0 0 24 24" xml:space="preserve">
<path fill="none" stroke="#000000" stroke-width="0.9567" stroke-linecap="round" stroke-linejoin="round" stroke-miterlimit="10" d="
	M9.315,12.285c-1.75-1.227-2.866-3.048-2.866-5.086c0-3.692,3.644-6.683,8.132-6.683c4.489,0,8.132,2.991,8.132,6.683
	c0,3.689-3.643,6.678-8.132,6.678c-0.722,0-1.421-0.088-2.09-0.232l-5.344,2.904L9.315,12.285z"/>
<path fill="none" stroke="#000000" stroke-width="0.9567" stroke-linecap="round" stroke-linejoin="round" stroke-miterlimit="10" d="
	M4.861,9.584C3.698,10.739,3,12.221,3,13.836c0,2.037,1.115,3.859,2.866,5.084l-2.282,4.582l5.457-3.217
	c0.668,0.145,1.367,0.23,2.091,0.23c1.831,0,3.61-0.518,5.159-1.484c1.377-0.859,3.088-2.322,2.816-4.578"/>
</svg>
