<?xml version="1.0" encoding="utf-8"?>
<!-- Generator: Adobe Illustrator 15.1.0, SVG Export Plug-In . SVG Version: 6.00 Build 0)  -->
<!DOCTYPE svg PUBLIC "-//W3C//DTD SVG 1.1//EN" "http://www.w3.org/Graphics/SVG/1.1/DTD/svg11.dtd">
<svg version="1.1" id="Layer_1" xmlns="http://www.w3.org/2000/svg" xmlns:xlink="http://www.w3.org/1999/xlink" x="0px" y="0px"
	 width="24px" height="24px" viewBox="0 0 24 24" enable-background="new 0 0 24 24" xml:space="preserve">
<g>
<path fill-rule="evenodd" clip-rule="evenodd" fill="none" stroke="#000000" stroke-width="0.961" stroke-linecap="round" stroke-linejoin="round" stroke-miterlimit="10" d="M17.893,9.318l4.889,0.003l0.023-8.794L12.792,0.519H3.427c-0.022,0-0.04,0.006-0.059,0.006h-0.21c-0.985,0-1.792,0.825-1.792,1.839v19.097"/>
<path fill-rule="evenodd" clip-rule="evenodd" fill="none" stroke="#000000" stroke-width="0.961" stroke-linecap="round" stroke-linejoin="round" stroke-miterlimit="10" d="M17.893,9.318"/>
<path fill-rule="evenodd" clip-rule="evenodd" fill="none" stroke="#000000" stroke-width="0.961" stroke-linecap="round" stroke-linejoin="round" stroke-miterlimit="10" d="M14.24,23.525h1.832c1.002,0,1.82-0.831,1.82-1.841V9.318"/>
<path fill-rule="evenodd" clip-rule="evenodd" fill="none" stroke="#000000" stroke-width="0.961" stroke-linecap="round" stroke-linejoin="round" stroke-miterlimit="10" d="M17.141,23.525"/>
<path fill-rule="evenodd" clip-rule="evenodd" fill="none" stroke="#000000" stroke-width="0.961" stroke-linecap="round" stroke-linejoin="round" stroke-miterlimit="10" d="M17.59,23.525"/>
<path fill-rule="evenodd" clip-rule="evenodd" fill="none" stroke="#000000" stroke-width="0.961" stroke-linecap="round" stroke-linejoin="round" stroke-miterlimit="10" d="M1.366,21.979v-0.302c0,1.016,0.71,1.843,1.575,1.843h0.184c0.018,0,0.035,0.006,0.053,0.006h12.453"/>
<path fill-rule="evenodd" clip-rule="evenodd" fill="none" stroke="#000000" stroke-width="0.961" stroke-linecap="round" stroke-linejoin="round" stroke-miterlimit="10" d="M1.366,21.979"/>
<path fill-rule="evenodd" clip-rule="evenodd" fill="none" stroke="#000000" stroke-width="0.961" stroke-linecap="round" stroke-linejoin="round" stroke-miterlimit="10" d="M1.366,7.389"/>
</g>
<rect x="17.613" y="3.009" fill-rule="evenodd" clip-rule="evenodd" fill="none" stroke="#000000" stroke-miterlimit="10" width="2.838" height="3.816"/>
<rect x="17.955" y="11.793" fill-rule="evenodd" clip-rule="evenodd" fill="none" stroke="#000000" stroke-miterlimit="10" width="4.762" height="3.764"/>
<rect x="18.087" y="18.087" fill-rule="evenodd" clip-rule="evenodd" fill="none" stroke="#000000" stroke-miterlimit="10" width="4.658" height="3.94"/>
<g>
<path fill="#000000" d="M6.183,13.74L5.78,15.598H4.276l1.759-8.12h2.11l1.612,8.12H8.199L7.81,13.74H6.183z M7.648,12.512l-0.295-1.698C7.259,10.32,7.138,9.513,7.056,8.971H7.017c-0.094,0.542-0.229,1.385-0.323,1.854l-0.336,1.687H7.648z"/>
<path fill="#000000" d="M14.892,14.259c0,0.468,0.403,0.938,0.484,1.339h-1.397l-0.283-0.58h-0.028c-0.36,0.459-0.875,0.677-1.456,0.677c-0.996,0-1.737-0.749-1.737-1.794c0-1.544,1.521-2.183,3.018-2.194v-0.133c0.045-0.879-0.369-0.959-0.991-0.959c-0.526,0-0.95,0.109-1.339,0.327l-0.271-0.887c0.363-0.193,1.129-0.446,2.047-0.446c2.007,0,1.952,1.265,1.952,2.458V14.259z M13.545,12.729c-0.592,0.013-1.812,0.209-1.812,1.027c0,0.59,0.38,0.988,0.946,0.923c0.28-0.033,0.706-0.301,0.828-0.649c0.024-0.083,0.038-0.18,0.038-0.277V12.729z"/>
</g>
</svg>
