<?xml version="1.0" encoding="utf-8"?>
<!-- Generator: Adobe Illustrator 15.1.0, SVG Export Plug-In . SVG Version: 6.00 Build 0)  -->
<!DOCTYPE svg PUBLIC "-//W3C//DTD SVG 1.1//EN" "http://www.w3.org/Graphics/SVG/1.1/DTD/svg11.dtd">
<svg version="1.1" id="Layer_1" xmlns="http://www.w3.org/2000/svg" xmlns:xlink="http://www.w3.org/1999/xlink" x="0px" y="0px"
	 width="24px" height="24px" viewBox="0 0 24 24" enable-background="new 0 0 24 24" xml:space="preserve">
<path fill="#000000" d="M11.457,0C7.552,0,3.748,1.137,3.748,3.633v16.77c0,2.498,3.804,3.635,7.709,3.635s7.71-1.137,7.71-3.635
	V3.633C19.167,1.137,15.362,0,11.457,0z M18.093,9.733c-0.748,0.827-3.173,1.727-6.636,1.727c-3.463,0-5.889-0.9-6.636-1.727V5.162
	c1.296,0.93,3.752,1.546,6.636,1.546c2.883,0,5.338-0.616,6.636-1.546V9.733z M4.821,11.103c1.472,0.971,4.061,1.476,6.636,1.476
	c2.574,0,5.162-0.505,6.636-1.476v4.219c-0.748,0.828-3.173,1.728-6.636,1.728c-3.463,0-5.889-0.899-6.636-1.728V11.103z
	 M11.457,0.801c5.06-0.022,6.636,2.265,6.636,2.833c0,0.567-2.326,1.956-6.636,1.956c-4.312,0-6.636-1.389-6.636-1.956
	C4.821,3.065,6.022,0.825,11.457,0.801z M11.357,22.958c-4.312,0-6.536-1.588-6.536-2.156v-4.109
	c1.472,0.972,4.061,1.475,6.636,1.475c2.574,0,5.162-0.503,6.636-1.475v4.01C18.093,21.271,15.667,22.958,11.357,22.958z"/>
</svg>
