<?xml version="1.0" encoding="utf-8"?>
<!-- Generator: Adobe Illustrator 15.1.0, SVG Export Plug-In . SVG Version: 6.00 Build 0)  -->
<!DOCTYPE svg PUBLIC "-//W3C//DTD SVG 1.1//EN" "http://www.w3.org/Graphics/SVG/1.1/DTD/svg11.dtd">
<svg version="1.1" id="Layer_1" xmlns="http://www.w3.org/2000/svg" xmlns:xlink="http://www.w3.org/1999/xlink" x="0px" y="0px"
	 width="24px" height="24px" viewBox="0 0 24 24" enable-background="new 0 0 24 24" xml:space="preserve">
<circle fill="none" stroke="#000000" stroke-width="0.95" stroke-linecap="round" stroke-linejoin="round" stroke-miterlimit="10" cx="19.839" cy="3.76" r="2.767"/>
<circle fill="none" stroke="#000000" stroke-width="0.95" stroke-linecap="round" stroke-linejoin="round" stroke-miterlimit="10" cx="20.735" cy="20.736" r="2.767"/>
<circle fill="none" stroke="#000000" stroke-width="0.95" stroke-miterlimit="10" cx="4.429" cy="3.819" r="3.36"/>
<path fill="none" stroke="#000000" stroke-width="0.95" stroke-linecap="round" stroke-linejoin="round" stroke-miterlimit="10" d="
	M17.877,20.98h-3.058c0,0-2.701,0.391-2.701-2.375V3.964"/>
<line fill="none" stroke="#000000" stroke-width="0.95" stroke-linecap="round" stroke-linejoin="round" stroke-miterlimit="10" x1="7.895" y1="3.86" x2="17.012" y2="3.86"/>
<line fill="none" stroke="#000000" stroke-width="0.95" stroke-linecap="round" stroke-linejoin="round" stroke-miterlimit="10" x1="7.753" y1="14.156" x2="12.054" y2="14.156"/>
<path fill="none" stroke="#000000" stroke-width="0.95" stroke-linecap="round" stroke-linejoin="round" stroke-miterlimit="10" d="
	M7.721,14.121c0,1.527-1.239,2.766-2.766,2.766c-1.528,0-2.768-1.238-2.768-2.766c0-1.523,1.239-2.762,2.768-2.762
	C6.482,11.359,7.721,12.598,7.721,14.121z"/>
<circle fill="none" stroke="#000000" stroke-width="0.95" stroke-miterlimit="10" cx="4.429" cy="3.819" r="1.403"/>
</svg>
