<?xml version="1.0" encoding="utf-8"?>
<!-- Generator: Adobe Illustrator 15.1.0, SVG Export Plug-In . SVG Version: 6.00 Build 0)  -->
<!DOCTYPE svg PUBLIC "-//W3C//DTD SVG 1.1//EN" "http://www.w3.org/Graphics/SVG/1.1/DTD/svg11.dtd">
<svg version="1.1" id="Layer_1" xmlns="http://www.w3.org/2000/svg" xmlns:xlink="http://www.w3.org/1999/xlink" x="0px" y="0px"
	 width="24px" height="24px" viewBox="0 0 24 24" enable-background="new 0 0 24 24" xml:space="preserve">
<g>
<path fill-rule="evenodd" clip-rule="evenodd" fill="none" stroke="#000000" stroke-width="0.95" stroke-linecap="round" stroke-linejoin="round" stroke-miterlimit="10" d="M21.125,9.558V8.415h-7.499V0.5H4.838c-0.02,0-0.037,0.006-0.056,0.006H4.585c-0.924,0-1.683,0.894-1.683,1.868v19.342"/>
<path fill-rule="evenodd" clip-rule="evenodd" fill="none" stroke="#000000" stroke-width="0.95" stroke-linecap="round" stroke-linejoin="round" stroke-miterlimit="10" d="M21.125,9.458"/>
<path fill-rule="evenodd" clip-rule="evenodd" fill="none" stroke="#000000" stroke-width="0.95" stroke-linecap="round" stroke-linejoin="round" stroke-miterlimit="10" d="M21.125,18.184"/>
<path fill-rule="evenodd" clip-rule="evenodd" fill="none" stroke="#000000" stroke-width="0.95" stroke-linecap="round" stroke-linejoin="round" stroke-miterlimit="10" d="M8.131,23.502h11.286c0.941,0,1.708-0.795,1.708-1.77V9.386"/>
<path fill-rule="evenodd" clip-rule="evenodd" fill="none" stroke="#000000" stroke-width="0.95" stroke-linecap="round" stroke-linejoin="round" stroke-miterlimit="10" d="M17.694,22.602"/>
<path fill-rule="evenodd" clip-rule="evenodd" fill="none" stroke="#000000" stroke-width="0.95" stroke-linecap="round" stroke-linejoin="round" stroke-miterlimit="10" d="M9.448,22.602"/>
<path fill-rule="evenodd" clip-rule="evenodd" fill="none" stroke="#000000" stroke-width="0.95" stroke-linecap="round" stroke-linejoin="round" stroke-miterlimit="10" d="M2.903,22.018v-0.291c0,0.975,0.758,1.77,1.683,1.77h0.197c0.019,0,0.036,0.006,0.056,0.006h4.61"/>
<path fill-rule="evenodd" clip-rule="evenodd" fill="none" stroke="#000000" stroke-width="0.95" stroke-linecap="round" stroke-linejoin="round" stroke-miterlimit="10" d="M2.903,21.117"/>
<path fill-rule="evenodd" clip-rule="evenodd" fill="none" stroke="#000000" stroke-width="0.95" stroke-linecap="round" stroke-linejoin="round" stroke-miterlimit="10" d="M2.903,7.102"/>
</g>
<line fill-rule="evenodd" clip-rule="evenodd" fill="none" stroke="#000000" stroke-width="0.95" stroke-linecap="round" stroke-linejoin="round" stroke-miterlimit="10" x1="13.807" y1="0.701" x2="20.889" y2="8.219"/>
<circle fill="none" stroke="#000000" stroke-miterlimit="10" cx="8.188" cy="16.408" r="5.344"/>
<path fill="none" stroke="#000000" stroke-miterlimit="10" d="M8.688,13.99c-0.722-0.29-0.829-0.297-1.602-0.497
	c-0.551-0.143-1.138-0.401-1.46,0.185c-0.335,0.609-0.61,1.782-0.165,2.351c0.353,0.451,0.82,0.493,1.164,0.493
	c-0.011-0.012,0.638,0.294,0.616,0.28c-0.056,0.217-0.1,0.773-0.025,1.003c0.043,0.131,0.056,0.499,0.096,0.686
	c0.054,0.253,0.097,0.209,0.125,0.466s-0.009,0.313,0.283,0.379c0.208,0.047,0.572,0.031,0.782,0
	c0.508-0.077,0.826-0.607,0.965-1.067c0.194-0.64-0.279-2.106,0.508-2.372c0.473-0.159,1.118,0.07,1.619,0.001
	c0.361-0.05,0.679-0.313,0.996-0.476c0.009-0.289,0.049-0.622,0.003-0.909c-0.063-0.395-0.312-0.774-0.471-1.147
	c-0.295-0.694-0.821-1.03-1.404-1.526c-0.217,0.116-0.253-0.083-0.469,0.188c-0.268,0.335-0.32,0.957-0.54,1.313
	C9.478,13.717,9.25,14.146,8.688,13.99"/>
</svg>
