<?xml version="1.0" encoding="utf-8"?>
<!-- Generator: Adobe Illustrator 15.1.0, SVG Export Plug-In . SVG Version: 6.00 Build 0)  -->
<!DOCTYPE svg PUBLIC "-//W3C//DTD SVG 1.1//EN" "http://www.w3.org/Graphics/SVG/1.1/DTD/svg11.dtd">
<svg version="1.1" id="Layer_1" xmlns="http://www.w3.org/2000/svg" xmlns:xlink="http://www.w3.org/1999/xlink" x="0px" y="0px"
	 width="24px" height="24px" viewBox="0 0 24 24" enable-background="new 0 0 24 24" xml:space="preserve">
<g>
	<line fill="none" stroke="#000000" stroke-width="1.1898" stroke-linecap="round" stroke-linejoin="round" stroke-miterlimit="10" x1="16.363" y1="23.347" x2="7.657" y2="23.347"/>
	<line fill="none" stroke="#000000" stroke-width="1.1898" stroke-linecap="round" stroke-linejoin="round" stroke-miterlimit="10" x1="12.012" y1="22.775" x2="12.012" y2="17.421"/>
	<path fill="none" stroke="#000000" stroke-width="1.1898" stroke-linecap="round" stroke-linejoin="round" stroke-miterlimit="10" d="
		M19.221,8.478v2.017c0,3.689-3.229,6.684-7.208,6.684c-3.983,0-7.211-2.995-7.211-6.684V8.443"/>
	<path fill="none" stroke="#000000" stroke-width="0.6554" stroke-linecap="round" stroke-linejoin="round" stroke-miterlimit="10" d="
		M16.678,4.933c-0.06-2.528-2.125-4.561-4.666-4.561c-2.544,0-4.61,2.033-4.67,4.561H7.335v5.042h0.009
		c0.095,2.5,2.146,4.495,4.668,4.495c2.517,0,4.567-1.995,4.664-4.495h0.01V4.933H16.678z"/>
</g>
</svg>
