<?xml version="1.0" encoding="utf-8"?>
<!-- Generator: Adobe Illustrator 15.1.0, SVG Export Plug-In . SVG Version: 6.00 Build 0)  -->
<!DOCTYPE svg PUBLIC "-//W3C//DTD SVG 1.1//EN" "http://www.w3.org/Graphics/SVG/1.1/DTD/svg11.dtd">
<svg version="1.1" id="Layer_1" xmlns="http://www.w3.org/2000/svg" xmlns:xlink="http://www.w3.org/1999/xlink" x="0px" y="0px"
	 width="24px" height="24px" viewBox="0 0 24 24" enable-background="new 0 0 24 24" xml:space="preserve">
<path fill="none" stroke="#000000" stroke-miterlimit="10" d="M0.701,16.92l6.466,6.383L20.824,9.261c0,0,0.645-5.343-0.449-6.271
	c-1.139-0.97-6.496,0.589-6.496,0.589L0.701,16.92z"/>
<path fill="none" stroke="#000000" stroke-width="0.75" stroke-miterlimit="10" d="M18.216,6.887
	c0.188,0.667-0.157,1.365-0.77,1.558c-0.614,0.192-1.263-0.194-1.452-0.862c-0.188-0.668,0.157-1.365,0.77-1.557
	C17.377,5.833,18.026,6.218,18.216,6.887z"/>
<line fill="none" stroke="#000000" stroke-width="0.75" stroke-miterlimit="10" x1="5.269" y1="16.67" x2="13.023" y2="8.591"/>
<line fill="none" stroke="#000000" stroke-width="0.75" stroke-miterlimit="10" x1="7.514" y1="18.844" x2="15.268" y2="10.768"/>
<path fill="none" stroke="#000000" stroke-width="0.75" stroke-miterlimit="10" d="M16.192,0c0,1.044,0,2.087,0,3.132
	c0,0.727-0.131,1.707,0.008,2.409c0.212,1.068,1.034,1.749,1.846,1.947"/>
<path fill="none" stroke="#000000" stroke-width="0.75" stroke-miterlimit="10" d="M20.552,7.457
	c0.555-0.017,1.143-0.352,1.635-0.614c0.454-0.242,0.896-0.453,1.364-0.654c0.107-0.046,0.174-0.048,0.25-0.116"/>
</svg>
