<?xml version="1.0" encoding="utf-8"?>
<!-- Generator: Adobe Illustrator 15.1.0, SVG Export Plug-In . SVG Version: 6.00 Build 0)  -->
<!DOCTYPE svg PUBLIC "-//W3C//DTD SVG 1.1//EN" "http://www.w3.org/Graphics/SVG/1.1/DTD/svg11.dtd">
<svg version="1.1" id="Layer_1" xmlns="http://www.w3.org/2000/svg" xmlns:xlink="http://www.w3.org/1999/xlink" x="0px" y="0px"
	 width="24px" height="24px" viewBox="0 0 24 24" enable-background="new 0 0 24 24" xml:space="preserve">
<path fill="none" stroke="#000000" stroke-miterlimit="10" d="M12.183,0.5C5.877,0.5,0.5,5.653,0.5,11.967
	c0,6.318,5.376,11.535,11.682,11.535c6.308,0,11.319-5.416,11.319-11.735C23.502,5.453,18.49,0.5,12.183,0.5z M11.889,20.738
	c-0.955,0-1.668-0.783-1.668-1.625c0-0.889,0.763-1.578,1.717-1.578c1.013,0,1.6,0.689,1.6,1.578
	C13.537,19.955,12.929,20.738,11.889,20.738z M14.574,11.572c-1.234,1.25-1.685,2.329-1.6,3.555l0.057,0.6h-2.221l-0.056-0.625
	c-0.168-1.272,0.219-3.057,1.622-4.497c1.266-1.273,2.084-1.868,2.084-2.948c0-1.225-1.449-1.688-2.231-1.736
	c-0.78-0.048-2.437,0.478-3.119,1.147L8.04,5.205c1.198-0.958,2.771-1.343,4.258-1.343c3.229,0,4.69,1.706,4.69,3.53
	C16.988,9.026,15.922,10.202,14.574,11.572z"/>
</svg>
