<?xml version="1.0" encoding="utf-8"?>
<!-- Generator: Adobe Illustrator 15.1.0, SVG Export Plug-In . SVG Version: 6.00 Build 0)  -->
<!DOCTYPE svg PUBLIC "-//W3C//DTD SVG 1.1//EN" "http://www.w3.org/Graphics/SVG/1.1/DTD/svg11.dtd">
<svg version="1.1" id="Layer_1" xmlns="http://www.w3.org/2000/svg" xmlns:xlink="http://www.w3.org/1999/xlink" x="0px" y="0px"
	 width="24px" height="24px" viewBox="0 0 24 24" enable-background="new 0 0 24 24" xml:space="preserve">
<g>
<polyline fill="none" stroke="#000000" stroke-width="0.6357" stroke-linecap="round" stroke-linejoin="round" stroke-miterlimit="10" points="23.701,9.333 23.701,23.701 0.301,23.701 0.301,9.422 23.502,9.322"/>
<polyline fill="none" stroke="#000000" stroke-width="0.6357" stroke-linecap="round" stroke-linejoin="round" stroke-miterlimit="10" points="0.3,9.322 12.481,0.4 23.701,9.267"/>
<line fill="none" stroke="#000000" stroke-width="0.6357" stroke-linecap="round" stroke-linejoin="round" stroke-miterlimit="10" x1="0.301" y1="23.701" x2="7.36" y2="15.767"/>
<line fill="none" stroke="#000000" stroke-width="0.6357" stroke-linecap="round" stroke-linejoin="round" stroke-miterlimit="10" x1="23.602" y1="23.627" x2="16.885" y2="15.987"/>
<line fill="none" stroke="#000000" stroke-width="0.6357" stroke-linecap="round" stroke-linejoin="round" stroke-miterlimit="10" x1="0.301" y1="9.331" x2="7.16" y2="15.831"/>
<line fill="none" stroke="#000000" stroke-width="0.6357" stroke-linecap="round" stroke-linejoin="round" stroke-miterlimit="10" x1="23.602" y1="9.486" x2="17.084" y2="15.931"/>
<path fill="none" stroke="#000000" stroke-width="0.6357" stroke-linecap="round" stroke-linejoin="round" stroke-miterlimit="10" d="M7.469,15.697c0.754-0.374,1.541-0.679,2.352-0.908c1.088-0.309,2.231-0.383,3.348-0.25c0.9,0.107,1.301,0.241,2.172,0.498
	c0.314,0.092,1.147,0.518,1.516,0.802"/>
</g>
</svg>
