<?xml version="1.0" encoding="utf-8"?>
<!-- Generator: Adobe Illustrator 15.1.0, SVG Export Plug-In . SVG Version: 6.00 Build 0)  -->
<!DOCTYPE svg PUBLIC "-//W3C//DTD SVG 1.1//EN" "http://www.w3.org/Graphics/SVG/1.1/DTD/svg11.dtd">
<svg version="1.1" id="Layer_1" xmlns="http://www.w3.org/2000/svg" xmlns:xlink="http://www.w3.org/1999/xlink" x="0px" y="0px"
	 width="24px" height="24px" viewBox="0 0 24 24" enable-background="new 0 0 24 24" xml:space="preserve">
<path fill="#000000" d="M20.727,0.709c0-0.39-0.312-0.706-0.691-0.706H6.259C6.251,0.004,6.248,0,6.244,0
	C4.4,0,2.901,1.526,2.901,3.4c0,0.003,0,0.005,0,0.006c0,0.002,0,0.004,0,0.008v19.85c0,0.389,0.311,0.706,0.693,0.706h13.764
	c0.012,0,0.017,0.006,0.025,0.006c0.382,0,0.69-0.317,0.69-0.706c0-1.099,0.879-1.991,1.957-1.991c0.381,0,0.692-0.313,0.692-0.701
	c0-0.004-0.002-0.004-0.002-0.006c0-0.004,0.005-0.006,0.005-0.01V0.709z M17.089,22.995H3.959V3.673h13.13V22.995z M19.763,20.214
	c-0.935,0.058-1.317,0.535-1.692,0.814V3.415c0-0.39-0.311-0.705-0.692-0.705H4.117C4.106,1.723,4.845,1.441,5.667,1.101
	c0.185,0.026,0.922-0.087,1.291-0.2c0,0,11.599,0,12.847,0L19.763,20.214z"/>
<rect x="6.306" y="8.571" fill="#000000" width="8.064" height="1.071"/>
</svg>