<?xml version="1.0" encoding="utf-8"?>
<!-- Generator: Adobe Illustrator 15.1.0, SVG Export Plug-In . SVG Version: 6.00 Build 0)  -->
<!DOCTYPE svg PUBLIC "-//W3C//DTD SVG 1.1//EN" "http://www.w3.org/Graphics/SVG/1.1/DTD/svg11.dtd">
<svg version="1.1" id="Layer_1" xmlns="http://www.w3.org/2000/svg" xmlns:xlink="http://www.w3.org/1999/xlink" x="0px" y="0px"
	 width="24px" height="24px" viewBox="0 0 24 24" enable-background="new 0 0 24 24" xml:space="preserve">
<path fill="#000000" d="M18.497,7.314c0.073-3.949-4.008-7.224-9.114-7.313c-5.109-0.089-9.307,3.04-9.382,6.992
	c-0.073,3.952,4.007,7.227,9.114,7.317c1.272,0.021,2.488-0.157,3.6-0.498c0.932,1.166,3.495,1.695,3.495,1.695
	s-1.107-1.475-0.701-3.055C17.309,11.181,18.459,9.36,18.497,7.314z M14.828,11.521l-0.366,0.259l-0.11,0.427
	c-0.117,0.462-0.148,0.909-0.118,1.329c-0.211-0.129-0.384-0.265-0.497-0.405l-0.534-0.668l-0.833,0.255
	c-0.97,0.296-1.996,0.447-3.052,0.447l-0.182-0.003c-4.455-0.078-8.028-2.837-7.967-6.149c0.061-3.235,3.65-5.867,8.001-5.867
	l0.192,0.002c2.209,0.039,4.262,0.731,5.782,1.951c1.438,1.153,2.214,2.644,2.186,4.195C17.298,8.899,16.412,10.401,14.828,11.521z"
	/>
<g>
<path fill="#000000" d="M9.015,19.119c-0.489-0.252-0.611-0.812-0.271-1.244c0,0,1.502-1.93,1.593-3.994
	c-0.321,0.05-0.661,0.031-1.003,0.027c-0.106,1.671-1.363,3.332-1.376,3.349c-0.347,0.442-0.48,0.996-0.366,1.521
	c0.114,0.525,0.466,0.974,0.965,1.23l2.447,1.244l1.086-0.569L9.015,19.119z"/>
<path fill="#000000" d="M1,21.335l2.478-1.299c0.499-0.265,0.846-0.717,0.956-1.241c0.11-0.525-0.025-1.078-0.373-1.518
	c-0.013-0.017-1.414-1.821-1.414-3.587c0-0.828,0.167-1.595,0.435-2.271c-0.289-0.175-0.625-0.248-0.934-0.384
	c-0.319,0.793-0.501,1.696-0.501,2.655c0,2.149,1.629,4.207,1.629,4.207c0.341,0.432,0.223,0.995-0.263,1.253L0,20.73V24h7.999
	v-0.211c0-0.257,0.111-0.536,0.272-0.789H1V21.335z"/>
</g>
<path fill="#000000" d="M21.015,19.119c-0.488-0.252-0.61-0.812-0.271-1.244c0,0,1.609-2.049,1.609-4.185
	c0-3.122-1.915-5.654-4.289-5.7c-0.077,0.332-0.181,0.652-0.305,0.961c0.018,0.02,0.032,0.042,0.05,0.061
	c0.063-0.012,0.125-0.027,0.19-0.027c1.85,0,3.354,2.11,3.354,4.704c0,1.754-1.383,3.551-1.397,3.568
	c-0.345,0.439-0.479,0.994-0.364,1.519s0.466,0.973,0.964,1.23L23,21.25V23H9.823l5.655-2.964c0.499-0.266,0.846-0.717,0.956-1.242
	c0.109-0.525-0.026-1.078-0.374-1.518c-0.011-0.014-1.041-1.349-1.332-2.843c-0.382-0.079-0.733-0.233-1.054-0.436
	c0.142,2.033,1.602,3.899,1.602,3.899c0.342,0.432,0.224,0.995-0.262,1.253l-6.048,3.17c-0.486,0.258-0.966,0.919-0.966,1.469V24H24
	v-3.363L21.015,19.119z"/>
<rect x="4.749" y="4.042" fill="#000000" width="8.958" height="1.167"/>
<rect x="4.749" y="6.675" fill="#000000" width="8.958" height="1.167"/>
<rect x="7.749" y="9.417" fill="#000000" width="5.958" height="1.167"/>
</svg>
