<?xml version="1.0" encoding="utf-8"?>
<!-- Generator: Adobe Illustrator 15.1.0, SVG Export Plug-In . SVG Version: 6.00 Build 0)  -->
<!DOCTYPE svg PUBLIC "-//W3C//DTD SVG 1.1//EN" "http://www.w3.org/Graphics/SVG/1.1/DTD/svg11.dtd">
<svg version="1.1" id="Layer_1" xmlns="http://www.w3.org/2000/svg" xmlns:xlink="http://www.w3.org/1999/xlink" x="0px" y="0px"
	 width="24px" height="24px" viewBox="0 0 24 24" enable-background="new 0 0 24 24" xml:space="preserve">
<g>
	<g>
			<line fill="none" stroke="#000000" stroke-width="0.7627" stroke-linecap="round" stroke-linejoin="round" stroke-miterlimit="10" x1="7.045" y1="6.689" x2="8.621" y2="6.689"/>
		<circle fill="#000000" cx="4.271" cy="6.668" r="0.823"/>
	</g>
	<g>
			<line fill="none" stroke="#000000" stroke-width="0.7627" stroke-linecap="round" stroke-linejoin="round" stroke-miterlimit="10" x1="7.045" y1="10.499" x2="13.373" y2="10.499"/>
		<circle fill="#000000" cx="4.271" cy="10.546" r="0.823"/>
	</g>
	<g>
			<line fill="none" stroke="#000000" stroke-width="0.7627" stroke-linecap="round" stroke-linejoin="round" stroke-miterlimit="10" x1="7.045" y1="14.308" x2="10.007" y2="14.308"/>
		<circle fill="#000000" cx="4.271" cy="14.422" r="0.823"/>
	</g>
	<g>
			<line fill="none" stroke="#000000" stroke-width="0.7627" stroke-linecap="round" stroke-linejoin="round" stroke-miterlimit="10" x1="7.045" y1="18.12" x2="7.832" y2="18.12"/>
		<path fill="#000000" d="M5.093,18.3c0,0.449-0.368,0.82-0.823,0.82c-0.453,0-0.822-0.371-0.822-0.82
			c0-0.456,0.369-0.826,0.822-0.826C4.726,17.474,5.093,17.844,5.093,18.3z"/>
	</g>
</g>
<g>
		<path fill-rule="evenodd" clip-rule="evenodd" fill="none" stroke="#000000" stroke-width="0.95" stroke-linecap="round" stroke-linejoin="round" stroke-miterlimit="10" d="
		M18.178,10.008V8.649h-7.277V0.5H2.376c-0.02,0-0.036,0.006-0.054,0.006H2.131C1.235,0.507,0.5,1.323,0.5,2.328v19.297"/>
		<path fill-rule="evenodd" clip-rule="evenodd" fill="none" stroke="#000000" stroke-width="0.95" stroke-linecap="round" stroke-linejoin="round" stroke-miterlimit="10" d="
		M18.18,9.942"/>
		<path fill-rule="evenodd" clip-rule="evenodd" fill="none" stroke="#000000" stroke-width="0.95" stroke-linecap="round" stroke-linejoin="round" stroke-miterlimit="10" d="
		M18.18,19.453"/>
		<path fill-rule="evenodd" clip-rule="evenodd" fill="none" stroke="#000000" stroke-width="0.95" stroke-linecap="round" stroke-linejoin="round" stroke-miterlimit="10" d="
		M14.855,23.602h1.668c0.912,0,1.656-0.818,1.656-1.82v-2.727"/>
		<path fill-rule="evenodd" clip-rule="evenodd" fill="none" stroke="#000000" stroke-width="0.95" stroke-linecap="round" stroke-linejoin="round" stroke-miterlimit="10" d="
		M14.855,24"/>
		<path fill-rule="evenodd" clip-rule="evenodd" fill="none" stroke="#000000" stroke-width="0.95" stroke-linecap="round" stroke-linejoin="round" stroke-miterlimit="10" d="
		M6.844,24"/>
		<path fill-rule="evenodd" clip-rule="evenodd" fill="none" stroke="#000000" stroke-width="0.95" stroke-linecap="round" stroke-linejoin="round" stroke-miterlimit="10" d="
		M0.5,22.074v-0.299c0,1.002,0.735,1.822,1.631,1.822h0.191c0.018,0,0.034,0.004,0.054,0.004h4.468"/>
		<path fill-rule="evenodd" clip-rule="evenodd" fill="none" stroke="#000000" stroke-width="0.95" stroke-linecap="round" stroke-linejoin="round" stroke-miterlimit="10" d="
		M0.5,8.033"/>
</g>
<line fill-rule="evenodd" clip-rule="evenodd" fill="none" stroke="#000000" stroke-width="0.8971" stroke-linecap="round" stroke-linejoin="round" stroke-miterlimit="10" x1="10.937" y1="0.5" x2="18.062" y2="8.42"/>
<g>
	<g>
		<g>
				<polygon fill="none" stroke="#000000" stroke-width="0.95" stroke-linecap="round" stroke-linejoin="round" stroke-miterlimit="10" points="
				21.069,13.073 12.227,21.896 9.378,19.053 18.226,10.227 			"/>
				<polygon fill="none" stroke="#000000" stroke-width="0.95" stroke-linecap="round" stroke-linejoin="round" stroke-miterlimit="10" points="
				12.242,21.867 8.312,22.92 9.395,19.069 			"/>
		</g>
		<path fill="none" stroke="#000000" stroke-width="0.95" stroke-linecap="round" stroke-linejoin="round" stroke-miterlimit="10" d="
		M21.17,12.975l1.589-1.591c0.903-0.9,0.996-2.268,0.207-3.058c-0.785-0.785-2.152-0.693-3.056,0.208l-1.592,1.59L21.17,12.975z"/>
	</g>
	<polygon fill="#000000" points="9.44,19.142 11.934,21.766 8.583,22.829 	"/>
</g>
</svg>
