<svg width="34px" height="34px" xmlns="http://www.w3.org/2000/svg" xmlns:xlink="http://www.w3.org/1999/xlink">
<g style="">  <path d="M9.000000,9.000000 L13.000000,9.000000 L13.000000,13.000000 L9.000000,13.000000 L9.000000,10.000000 L9.000000,9.000000 Z" style="fill: rgba(90, 90, 90, 1.000000); stroke-width: 4.100000px; stroke: rgba(255, 228, 94, 0.000000); " fill="#6c6c6c" stroke="#ffe670" stroke-width="4.100000" />
  <path d="M15.000000,9.000000 L19.000000,9.000000 L19.000000,13.000000 L15.000000,13.000000 L15.000000,10.000000 L15.000000,9.000000 Z" style="fill: rgba(90, 90, 90, 1.000000); stroke-width: 4.100000px; stroke: rgba(255, 228, 94, 0.000000); " fill="#6c6c6c" stroke="#ffe670" stroke-width="4.100000" />
  <path d="M21.000000,15.000000 L25.000000,15.000000 L25.000000,19.000000 L21.000000,19.000000 L21.000000,16.000000 L21.000000,15.000000 Z" style="fill: rgba(90, 90, 90, 1.000000); stroke-width: 4.100000px; stroke: rgba(255, 228, 94, 0.000000); " fill="#6c6c6c" stroke="#ffe670" stroke-width="4.100000" />
  <path d="M21.000000,9.000000 L25.000000,9.000000 L25.000000,13.000000 L21.000000,13.000000 L21.000000,10.000000 L21.000000,9.000000 Z" style="fill: rgba(90, 90, 90, 1.000000); stroke-width: 4.100000px; stroke: rgba(255, 228, 94, 0.000000); " fill="#6c6c6c" stroke="#ffe670" stroke-width="4.100000" />
  <path d="M15.000000,15.000000 L19.000000,15.000000 L19.000000,19.000000 L15.000000,19.000000 L15.000000,16.000000 L15.000000,15.000000 Z" style="fill: rgba(90, 90, 90, 1.000000); stroke-width: 4.100000px; stroke: rgba(255, 228, 94, 0.000000); " fill="#6c6c6c" stroke="#ffe670" stroke-width="4.100000" />
  <path d="M9.000000,15.000000 L13.000000,15.000000 L13.000000,19.000000 L9.000000,19.000000 L9.000000,16.000000 L9.000000,15.000000 Z" style="fill: rgba(90, 90, 90, 1.000000); stroke-width: 4.100000px; stroke: rgba(255, 228, 94, 0.000000); " fill="#6c6c6c" stroke="#ffe670" stroke-width="4.100000" />
  <path d="M9.000000,21.000000 L13.000000,21.000000 L13.000000,25.000000 L9.000000,25.000000 L9.000000,22.000000 L9.000000,21.000000 Z" style="fill: rgba(90, 90, 90, 1.000000); stroke-width: 4.100000px; stroke: rgba(255, 228, 94, 0.000000); " fill="#6c6c6c" stroke="#ffe670" stroke-width="4.100000" />
  <path d="M15.000000,21.000000 L19.000000,21.000000 L19.000000,25.000000 L15.000000,25.000000 L15.000000,22.000000 L15.000000,21.000000 Z" style="fill: rgba(90, 90, 90, 1.000000); stroke-width: 4.100000px; stroke: rgba(255, 228, 94, 0.000000); " fill="#6c6c6c" stroke="#ffe670" stroke-width="4.100000" />
  <path d="M21.000000,21.000000 L25.000000,21.000000 L25.000000,25.000000 L21.000000,25.000000 L21.000000,22.000000 L21.000000,21.000000 Z" style="fill: rgba(90, 90, 90, 1.000000); stroke-width: 4.100000px; stroke: rgba(255, 228, 94, 0.000000); " fill="#6c6c6c" stroke="#ffe670" stroke-width="4.100000" />
</g></svg>