<?xml version="1.0" encoding="utf-8"?>
<!-- Generator: Adobe Illustrator 15.1.0, SVG Export Plug-In . SVG Version: 6.00 Build 0)  -->
<!DOCTYPE svg PUBLIC "-//W3C//DTD SVG 1.1//EN" "http://www.w3.org/Graphics/SVG/1.1/DTD/svg11.dtd">
<svg version="1.1" id="Layer_1" xmlns="http://www.w3.org/2000/svg" xmlns:xlink="http://www.w3.org/1999/xlink" x="0px" y="0px"
	 width="24px" height="24px" viewBox="0 0 24 24" enable-background="new 0 0 24 24" xml:space="preserve">
<path fill="none" stroke="#000000" stroke-miterlimit="10" d="M0.5,3.779v18.16c0,0,1.82,2.849,5.086,0.847
	c4.444-2.724,1.882-2.88,1.968-5.375c0.01-0.275,0.299-2.392,0.299-2.392l1.313-1.069c0,0,0.835-0.575,0.358-1.476
	c-0.478-0.909-2.148-4.613-2.148-4.613S7.078,7.037,7.138,6.295c0.06-0.74-1.73-4.557-3.52-5.216C1.827,0.421,0.5,0.5,0.5,0.5V3.779
	z"/>
<path fill="none" stroke="#000000" stroke-miterlimit="10" d="M4.719,16.35c0,0,0.92,0.461,2.683,0.613"/>
<ellipse fill="none" stroke="#000000" stroke-miterlimit="10" cx="4.418" cy="9.951" rx="1.043" ry="1.007"/>
<path fill="none" stroke="#000000" stroke-miterlimit="10" d="M23.502,3.842v18.025c-0.526,0.811-1.234,2.362-4.326,1.043
	c-4.77-2.035-2.238-3.035-2.806-5.572c-0.06-0.267-0.305-2.388-0.305-2.388l-1.341-1.069c0,0-0.852-0.574-0.365-1.478
	c0.487-0.907,2.195-4.611,2.195-4.611s0.301-0.823,0.242-1.564c-0.062-0.74,1.767-4.357,3.592-5.015
	C22.218,0.555,23.502,0.5,23.502,0.5V3.842z"/>
<path fill="none" stroke="#000000" stroke-miterlimit="10" d="M19.253,16.374c0,0-0.922,0.457-2.685,0.61"/>
<circle fill="none" stroke="#000000" stroke-miterlimit="10" cx="19.509" cy="9.997" r="1.06"/>
</svg>
