<?xml version="1.0" encoding="utf-8"?>
<!-- Generator: Adobe Illustrator 15.1.0, SVG Export Plug-In . SVG Version: 6.00 Build 0)  -->
<!DOCTYPE svg PUBLIC "-//W3C//DTD SVG 1.1//EN" "http://www.w3.org/Graphics/SVG/1.1/DTD/svg11.dtd">
<svg version="1.1" id="Layer_1" xmlns="http://www.w3.org/2000/svg" xmlns:xlink="http://www.w3.org/1999/xlink" x="0px" y="0px"
	 width="24px" height="24px" viewBox="0 0 24 24" enable-background="new 0 0 24 24" xml:space="preserve">
<path fill="none" stroke="#000000" stroke-width="0.9567" stroke-linecap="round" stroke-linejoin="round" stroke-miterlimit="10" d="
	M8.861,2.741c0-0.881,0.394-1.669,1.013-2.226H2.608v6.65c0.561-0.491,1.297-0.799,2.113-0.799c1.749,0,3.165,1.367,3.165,3.049
	c0,1.684-1.416,3.055-3.165,3.055c-0.816,0-1.552-0.305-2.113-0.794v6.65h7.21c-0.59,0.553-0.958,1.326-0.958,2.182
	c0,1.685,1.416,3.05,3.164,3.05c1.742,0,3.163-1.365,3.163-3.05c0-0.855-0.373-1.629-0.961-2.182h7.209v-6.563
	c-0.547,0.436-1.238,0.708-2.004,0.708c-1.746,0-3.163-1.371-3.163-3.055c0-1.682,1.417-3.049,3.163-3.049
	c0.766,0,1.457,0.274,2.004,0.712V0.516h-7.268c0.621,0.557,1.017,1.345,1.017,2.226c0,1.685-1.418,3.05-3.16,3.05
	C10.276,5.791,8.861,4.426,8.861,2.741z"/>
</svg>
