<?xml version="1.0" encoding="utf-8"?>
<!-- Generator: Adobe Illustrator 15.1.0, SVG Export Plug-In . SVG Version: 6.00 Build 0)  -->
<!DOCTYPE svg PUBLIC "-//W3C//DTD SVG 1.1//EN" "http://www.w3.org/Graphics/SVG/1.1/DTD/svg11.dtd">
<svg version="1.1" id="Layer_1" xmlns="http://www.w3.org/2000/svg" xmlns:xlink="http://www.w3.org/1999/xlink" x="0px" y="0px"
	 width="24px" height="24px" viewBox="0 0 24 24" enable-background="new 0 0 24 24" xml:space="preserve">
<path fill="none" stroke="#000000" stroke-width="0.95" stroke-linecap="round" stroke-linejoin="round" stroke-miterlimit="10" d="
	M23.303,5.692c-2.695,4.066-6.813,2.734-6.115,6.19c0.523,2.592,5.951,2.961,4.268,5.886c-2.954,5.133-13.082,7.307-17.508,4.612
	c-7.525-4.58-1.394-14.908,4.675-18.766C12.157,1.369,14.766,0,20.031,0.701c2.429,0.323,3.408,1.912,3.57,3.44
	C23.602,4.141,23.701,5.091,23.303,5.692z"/>
<path fill="none" stroke="#000000" stroke-width="0.95" stroke-linecap="round" stroke-linejoin="round" stroke-miterlimit="10" d="
	M15.313,13.61c0.621,0.862,0.04,2.371-1.299,3.37c-1.342,1.003-2.941,1.116-3.562,0.256c-0.623-0.859-0.039-2.374,1.31-3.374
	C13.104,12.86,14.693,12.748,15.313,13.61z"/>
<path fill="#000000" d="M13.602,3.74c0.102-0.144,0.197-0.299,0.313-0.463c0.146-0.21,0.494-0.487,0.762-0.388
	c0.512,0.189,0.191,1.22,0.994,0.894c0.355-0.146,0.607-0.576,1.01-0.605c0.557-0.042,0.643,0.624,0.637,1.057
	c-0.014,1.093-0.846,1.988-1.604,2.658c-0.549,0.484-1.141,1.163-1.848,1.383c-0.812,0.253-1.011-0.538-0.909-1.206
	c0.06-0.393,0.526-0.747,0.444-1.15c-0.111-0.52-0.88-0.415-1.073-0.875c-0.145-0.352,0.416-0.534,0.649-0.683
	C13.262,4.183,13.438,3.975,13.602,3.74z"/>
<path fill="#000000" d="M10.257,10.923c0.116-0.131,0.245-0.26,0.377-0.41c0.17-0.191,0.361-0.598,0.212-0.844
	C10.56,9.198,9.641,9.734,9.786,8.865c0.065-0.385,0.424-0.727,0.369-1.134c-0.077-0.566-0.731-0.513-1.144-0.416
	C7.969,7.557,7.287,8.575,6.805,9.472c-0.352,0.648-0.876,1.384-0.939,2.137c-0.073,0.862,0.723,0.889,1.339,0.648
	c0.365-0.139,0.605-0.677,1.01-0.677c0.519,0,0.578,0.784,1.056,0.88c0.367,0.073,0.424-0.525,0.519-0.787
	C9.904,11.352,10.066,11.135,10.257,10.923z"/>
<path fill="#000000" d="M5.737,18.483c0.038,0.026-1.035-0.724-0.794-0.893c0.275-0.193,0.195-0.472,0.049-0.732
	c-0.593,0.316-1.283,0.642-1.678,1.176c-0.512,0.688,0.146,1.145,0.796,1.278c0.381,0.08,0.865-0.244,1.206-0.023
	c0.439,0.28,0.081,0.977,0.435,1.319c0.273,0.259,0.633-0.213,0.85-0.385c0.264-0.209,0.516-0.304,0.788-0.38
	c0.166-0.047,0.342-0.086,0.533-0.142c0.002,0.002,0.003,0,0.005,0C7.172,19.351,6.422,18.962,5.737,18.483z"/>
<g>
	<g>
		<path fill="#000000" d="M5.23,17.475c0.083-0.053,0.164-0.108,0.243-0.168c0.066-0.058,0.35-0.206,0.097-0.102
			c-0.325,0.087-0.65,0.174-0.975,0.261c-0.151,0.012-0.007,0.031,0.042,0.136c0.054,0.115,0.028,0.281,0.021,0.403
			c-0.018,0.289-0.03,0.521,0.164,0.756c0.356,0.434,1.188,0.044,1.347,0.634c0.033,0.122-0.004,0.247-0.043,0.361
			c-0.264,0.456,0.135,0.393,1.197-0.189c-0.072-0.058-0.126-0.128-0.165-0.211c-0.158-0.263-0.23-0.501-0.475-0.7
			c-0.28-0.228-0.746-0.195-1.069-0.325c-0.176-0.07-0.307-0.192-0.408-0.351c-0.067-0.106,0.016-0.4-0.137-0.315
			c0.328-0.182,0.246-0.39-0.106-0.397c-0.469-0.01-0.959,0.142-1.366,0.366c-0.517,0.285-0.446,0.789-0.075,1.175
			c0.463,0.48,1.267,0.186,1.588,0.833c0.27,0.545,0.544,0.751,1.18,0.673c0.656-0.081,1.534-0.318,1.777-1.016
			c0.174-0.499-0.135-0.835-0.593-0.958c-0.221-0.059-0.473,0.001-0.684-0.095c-0.233-0.106-0.217-0.438-0.207-0.646
			c0.024-0.51-0.057-0.806-0.622-0.883c-0.855-0.116-1.533,0.286-2.202,0.728c-0.297,0.196-0.271,0.39,0.106,0.397
			C4.309,17.85,4.855,17.722,5.23,17.475L5.23,17.475z"/>
	</g>
</g>
</svg>
