<?xml version="1.0" encoding="utf-8"?>
<!-- Generator: Adobe Illustrator 15.1.0, SVG Export Plug-In . SVG Version: 6.00 Build 0)  -->
<!DOCTYPE svg PUBLIC "-//W3C//DTD SVG 1.1//EN" "http://www.w3.org/Graphics/SVG/1.1/DTD/svg11.dtd">
<svg version="1.1" id="Layer_1" xmlns="http://www.w3.org/2000/svg" xmlns:xlink="http://www.w3.org/1999/xlink" x="0px" y="0px"
	 width="24px" height="24px" viewBox="0 0 24 24" enable-background="new 0 0 24 24" xml:space="preserve">
<path fill="none" stroke="#000000" stroke-width="0.95" stroke-linecap="round" stroke-linejoin="round" stroke-miterlimit="10" d="
	M3.6,17.806v-3.015c0,0-0.3-2.426,1.381-2.426h7.599"/>
<path fill="none" stroke="#000000" stroke-width="0.95" stroke-linecap="round" stroke-linejoin="round" stroke-miterlimit="10" d="
	M20.623,17.806v-3.015c0,0,0.302-2.426-1.381-2.426h-7.595"/>
<line fill="none" stroke="#000000" stroke-width="0.95" stroke-linecap="round" stroke-linejoin="round" stroke-miterlimit="10" x1="11.912" y1="6.062" x2="11.912" y2="17.945"/>
<path fill="none" stroke="#000000" stroke-width="0.95" stroke-linecap="round" stroke-linejoin="round" stroke-miterlimit="10" d="
	M7.168,21.545c0,1.08-0.909,1.957-2.032,1.957H2.532c-1.121,0-2.031-0.877-2.031-1.957v-1.566c0-1.08,0.91-1.957,2.031-1.957h2.604
	c1.123,0,2.032,0.877,2.032,1.957V21.545z"/>
<path fill="none" stroke="#000000" stroke-width="0.95" stroke-linecap="round" stroke-linejoin="round" stroke-miterlimit="10" d="
	M15.318,21.545c0,1.08-0.908,1.957-2.02,1.957h-2.617c-1.121,0-2.031-0.877-2.031-1.957v-1.566c0-1.08,0.91-1.957,2.031-1.957h2.617
	c1.111,0,2.02,0.877,2.02,1.957V21.545z"/>
<path fill="none" stroke="#000000" stroke-width="0.95" stroke-linecap="round" stroke-linejoin="round" stroke-miterlimit="10" d="
	M15.318,4.023c0,1.081-0.908,1.958-2.02,1.958h-2.617c-1.121,0-2.031-0.877-2.031-1.958V2.458c0-1.082,0.91-1.958,2.031-1.958h2.617
	c1.111,0,2.02,0.876,2.02,1.958V4.023z"/>
<path fill="none" stroke="#000000" stroke-width="0.95" stroke-linecap="round" stroke-linejoin="round" stroke-miterlimit="10" d="
	M23.572,21.545c0,1.08-0.912,1.957-2.033,1.957h-2.602c-1.123,0-2.031-0.877-2.031-1.957v-1.566c0-1.08,0.908-1.957,2.031-1.957
	h2.602c1.121,0,2.033,0.877,2.033,1.957V21.545z"/>
</svg>
